<svg width="1440" height="1240" viewBox="0 0 1440 1240" fill="none" xmlns="http://www.w3.org/2000/svg">
<path d="M1421 365H1184.72L1246.45 231.68C1246.45 231.68 1205.41 181.85 1175.11 155.754C1143.77 128.769 1089.09 97.1652 1089.09 97.1652C1089.09 97.1652 990.433 149.178 907.962 165.917C827.834 182.182 771.281 189.548 720 189.548C668.719 189.548 612.166 182.182 532.038 165.917C449.567 149.178 350.906 97.1652 350.906 97.1652C350.906 97.1652 296.226 128.769 264.894 155.754C234.594 181.85 193.554 231.68 193.554 231.68L255.281 365H19L185.965 328.531L127.78 231.68C127.78 231.68 175.34 170.102 232.513 117.492C289.686 64.8815 350.906 32 350.906 32C350.906 32 466.264 97.1652 556.324 112.709C643.327 127.726 666.784 133.452 720 133.452C773.216 133.452 796.673 127.726 883.676 112.709C973.736 97.1652 1089.09 32 1089.09 32C1089.09 32 1150.31 64.8815 1207.49 117.492C1264.66 170.102 1312.22 231.68 1312.22 231.68L1254.03 328.531L1421 365Z" fill="black"/>
<path d="M348.27 365L302.966 263.406C302.966 263.406 325.856 240.235 338.732 230.135C351.608 220.035 371.637 208.153 371.637 208.153C371.637 208.153 489.904 244.394 555.714 262.218C621.524 280.041 714.516 280.041 714.516 280.041H725.484C725.484 280.041 818.476 280.041 884.286 262.218C950.096 244.394 1068.36 208.153 1068.36 208.153C1068.36 208.153 1088.39 220.035 1101.27 230.135C1114.14 240.235 1137.03 263.406 1137.03 263.406L1091.73 365H1133.22L1179 263.406C1179 263.406 1156.11 233.7 1122.73 204.588C1089.35 175.476 1068.36 163 1068.36 163C1068.36 163 956.772 206.371 884.286 223.6C811.8 240.829 769.253 240.829 725.484 240.829H714.516C670.747 240.829 628.2 240.829 555.714 223.6C483.228 206.371 371.637 163 371.637 163C371.637 163 350.654 175.476 317.272 204.588C283.89 233.7 261 263.406 261 263.406L306.781 365H348.27Z" fill="black"/>
<path d="M208.159 789H19L192.859 818.556C192.859 818.556 244.321 877.668 402.881 1006.32C561.44 1134.98 715.07 1206.77 715.07 1206.77C716.994 1207.26 720 1208 720 1208C720 1208 723.053 1207.49 724.93 1206.77C724.93 1206.77 878.56 1134.98 1037.12 1006.32C1195.68 877.668 1247.14 818.556 1247.14 818.556L1421 789H1231.84C1231.84 789 1074.67 936.61 957.839 1016.76C841.006 1096.9 725.916 1158.71 725.916 1158.71C723.608 1159.63 720 1161.06 720 1161.06C720 1161.06 716.392 1159.63 714.084 1158.71C714.084 1158.71 598.994 1096.9 482.161 1016.76C365.327 936.61 208.159 789 208.159 789Z" fill="black"/>
<path d="M410.048 905.53C568.774 1034.05 722.565 1105.77 722.565 1105.77C724.491 1106.26 727.5 1107 727.5 1107C727.5 1107 730.556 1106.49 732.435 1105.77C732.435 1105.77 886.226 1034.05 1044.95 905.53C1104.95 856.948 1149.63 818.292 1182 789H1127.08C1076.72 832.128 1017.22 880.607 965.589 915.951C848.633 996.014 733.422 1057.76 733.422 1057.76C731.112 1058.68 727.5 1060.11 727.5 1060.11C727.5 1060.11 723.888 1058.68 721.578 1057.76C721.578 1057.76 606.367 996.014 489.411 915.951C437.78 880.607 378.281 832.128 327.922 789H273C305.369 818.292 350.049 856.948 410.048 905.53Z" fill="black"/>
<path d="M76.0234 747H21.1953C19.9349 747 19.3047 746.212 19.3047 744.637L20.25 412.123C20.25 410.863 20.8802 410.232 22.1406 410.232H81.2227C82.4831 410.232 83.5859 410.863 84.5312 412.123L128.725 475.932L172.682 412.123C173.627 410.863 174.809 410.232 176.227 410.232H235.545C236.963 410.232 237.672 410.863 237.672 412.123L238.617 744.637C238.617 746.212 237.987 747 236.727 747H181.898C180.638 747 180.008 746.212 180.008 744.637L179.535 497.674L128.725 571.408L78.3867 497.674L77.9141 744.637C77.9141 746.212 77.2839 747 76.0234 747ZM368.834 751.727C351.661 751.727 335.827 747.315 321.332 738.492C306.995 729.669 295.415 717.932 286.592 703.279C277.926 688.469 273.594 672.242 273.594 654.596L274.066 501.219C274.066 483.258 278.399 467.109 287.064 452.771C295.572 438.277 307.074 426.697 321.568 418.031C336.063 409.208 351.818 404.797 368.834 404.797C386.48 404.797 402.314 409.13 416.336 417.795C430.516 426.46 441.859 438.119 450.367 452.771C459.033 467.266 463.365 483.415 463.365 501.219L463.838 654.596C463.838 672.242 459.584 688.391 451.076 703.043C442.411 717.853 430.91 729.669 416.572 738.492C402.235 747.315 386.322 751.727 368.834 751.727ZM368.834 693.354C378.602 693.354 387.11 689.415 394.357 681.537C401.605 673.502 405.229 664.521 405.229 654.596L404.756 501.219C404.756 490.505 401.368 481.446 394.594 474.041C387.819 466.636 379.232 462.934 368.834 462.934C358.908 462.934 350.4 466.557 343.311 473.805C336.221 481.052 332.676 490.19 332.676 501.219V654.596C332.676 665.152 336.221 674.29 343.311 682.01C350.4 689.572 358.908 693.354 368.834 693.354ZM589.092 747H502.359C501.099 747 500.469 746.212 500.469 744.637L501.414 412.123C501.414 410.863 502.044 410.232 503.305 410.232H596.418C614.536 410.232 631.001 414.644 645.811 423.467C660.305 432.29 671.728 444.027 680.078 458.68C688.428 473.174 692.604 488.93 692.604 505.945C692.604 519.81 689.452 532.729 683.15 544.703C676.848 556.677 669.365 566.367 660.699 573.771C669.995 583.067 677.242 593.859 682.441 606.148C687.641 618.438 690.24 631.357 690.24 644.906C690.24 663.655 685.75 680.749 676.77 696.189C667.632 711.63 655.421 723.997 640.139 733.293C624.856 742.431 607.84 747 589.092 747ZM596.418 467.66H559.551V543.758H596.418C607.604 543.758 616.663 539.819 623.596 531.941C630.528 523.906 633.994 515.241 633.994 505.945C633.994 495.704 630.292 486.803 622.887 479.24C615.482 471.52 606.659 467.66 596.418 467.66ZM589.092 602.367H559.551L559.078 687.918H589.092C600.751 687.918 610.755 683.664 619.105 675.156C627.456 666.648 631.631 656.565 631.631 644.906C631.631 633.247 627.456 623.243 619.105 614.893C610.755 606.542 600.751 602.367 589.092 602.367Z" fill="black"/>
<path d="M756 370.952C764.148 370.952 772.217 372.557 779.745 375.675C787.273 378.793 794.113 383.364 799.875 389.125C802.355 391.606 804.615 394.286 806.633 397.136L792.016 409.255C790.416 406.828 788.57 404.562 786.504 402.496C782.498 398.49 777.742 395.313 772.509 393.145C767.275 390.977 761.665 389.861 756 389.861C750.335 389.861 744.725 390.977 739.491 393.145C734.257 395.313 729.502 398.49 725.496 402.496C723.43 404.562 721.584 406.828 719.984 409.255L705.367 397.136C707.385 394.286 709.645 391.606 712.125 389.125C717.887 383.364 724.727 378.793 732.255 375.675C739.783 372.557 747.852 370.952 756 370.952Z" fill="#0044FF"/>
<path d="M756 330C769.526 330 782.92 332.664 795.416 337.84C807.913 343.017 819.268 350.604 828.832 360.168C832.213 363.549 835.346 367.153 838.213 370.952L828.455 379.043L818.696 387.134C816.349 383.926 813.754 380.895 810.929 378.071C803.716 370.857 795.152 365.135 785.728 361.231C776.303 357.327 766.201 355.318 756 355.318C745.799 355.318 735.697 357.327 726.272 361.231C716.848 365.135 708.284 370.857 701.07 378.071C698.246 380.895 695.651 383.926 693.304 387.134L673.787 370.952C676.654 367.153 679.787 363.549 683.168 360.168C692.732 350.604 704.087 343.017 716.584 337.84C729.08 332.664 742.474 330 756 330Z" fill="#0044FF"/>
<circle cx="755.5" cy="434" r="29.5" fill="#0044FF"/>
<rect x="726" y="479.5" width="59" height="267" rx="2" fill="black"/>
<path d="M906.705 751.727C889.532 751.727 873.698 747.315 859.203 738.492C844.866 729.669 833.365 717.932 824.699 703.279C816.191 688.469 811.938 672.242 811.938 654.596V632.381C811.938 630.648 812.725 629.781 814.301 629.781H868.656C869.917 629.781 870.547 630.648 870.547 632.381V654.596C870.547 665.152 874.092 674.29 881.182 682.01C888.271 689.572 896.779 693.354 906.705 693.354C916.788 693.354 925.375 689.493 932.465 681.773C939.555 673.896 943.1 664.837 943.1 654.596C943.1 642.779 935.38 632.46 919.939 623.637C917.419 622.061 914.11 620.171 910.014 617.965C906.075 615.602 901.348 612.923 895.834 609.93C890.32 606.936 884.963 604.021 879.764 601.186C874.564 598.192 869.523 595.356 864.639 592.678C846.993 582.279 833.837 569.281 825.172 553.684C816.664 537.928 812.41 520.283 812.41 500.746C812.41 482.785 816.822 466.557 825.645 452.062C834.467 437.725 845.969 426.382 860.148 418.031C874.486 409.523 890.005 405.27 906.705 405.27C923.878 405.27 939.633 409.523 953.971 418.031C968.308 426.697 979.73 438.198 988.238 452.535C996.904 466.872 1001.24 482.943 1001.24 500.746V540.449C1001.24 541.71 1000.61 542.34 999.346 542.34H944.99C943.73 542.34 943.1 541.71 943.1 540.449L942.627 500.746C942.627 489.402 939.082 480.186 931.992 473.096C924.902 466.006 916.473 462.461 906.705 462.461C896.779 462.461 888.271 466.242 881.182 473.805C874.092 481.367 870.547 490.348 870.547 500.746C870.547 511.302 872.753 520.125 877.164 527.215C881.733 534.305 890.005 541.079 901.979 547.539C903.239 548.169 906.154 549.745 910.723 552.266C915.292 554.786 920.333 557.622 925.848 560.773C931.52 563.767 936.64 566.524 941.209 569.045C945.778 571.408 948.535 572.826 949.48 573.299C965.551 582.279 978.234 593.308 987.529 606.385C996.982 619.462 1001.71 635.532 1001.71 654.596C1001.71 673.029 997.455 689.572 988.947 704.225C980.282 718.877 968.781 730.457 954.443 738.965C940.106 747.473 924.193 751.727 906.705 751.727ZM1193.61 747H1037.16C1035.9 747 1035.27 746.212 1035.27 744.637L1035.74 412.123C1035.74 410.863 1036.37 410.232 1037.63 410.232H1193.13C1194.4 410.232 1195.03 411.02 1195.03 412.596V466.715C1195.03 467.975 1194.4 468.605 1193.13 468.605H1093.88V544.23H1193.13C1194.4 544.23 1195.03 544.861 1195.03 546.121L1195.5 600.949C1195.5 602.21 1194.87 602.84 1193.61 602.84H1093.88V687.445H1193.61C1194.87 687.445 1195.5 688.233 1195.5 689.809V745.109C1195.5 746.37 1194.87 747 1193.61 747ZM1327.61 751.727C1310.12 751.727 1294.13 747.315 1279.63 738.492C1265.29 729.669 1253.87 717.853 1245.36 703.043C1237.01 688.076 1232.84 671.454 1232.84 653.178L1233.31 502.164C1233.31 484.203 1237.41 467.975 1245.6 453.48C1253.79 438.828 1265.06 427.09 1279.39 418.268C1293.89 409.287 1309.96 404.797 1327.61 404.797C1345.57 404.797 1361.56 409.13 1375.58 417.795C1389.76 426.46 1401.02 438.198 1409.38 453.008C1417.88 467.66 1422.14 484.046 1422.14 502.164V524.379C1422.14 525.639 1421.51 526.27 1420.25 526.27H1365.89C1364.63 526.27 1364 525.639 1364 524.379V502.164C1364 491.451 1360.53 482.234 1353.6 474.514C1346.67 466.794 1338 462.934 1327.61 462.934C1316.1 462.934 1307.28 466.872 1301.14 474.75C1294.99 482.628 1291.92 491.766 1291.92 502.164V653.178C1291.92 664.994 1295.39 674.684 1302.32 682.246C1309.25 689.651 1317.68 693.354 1327.61 693.354C1338 693.354 1346.67 689.257 1353.6 681.064C1360.53 672.714 1364 663.419 1364 653.178V630.727C1364 629.466 1364.63 628.836 1365.89 628.836H1420.72C1421.98 628.836 1422.61 629.466 1422.61 630.727V653.178C1422.61 671.296 1418.36 687.839 1409.85 702.807C1401.18 717.617 1389.76 729.512 1375.58 738.492C1361.4 747.315 1345.41 751.727 1327.61 751.727Z" fill="black"/>
</svg>
