<svg width="1520" height="1520" viewBox="0 0 1520 1520" fill="none" xmlns="http://www.w3.org/2000/svg">
<rect width="1520" height="1520" fill="white"/>
<path d="M1461 505H1224.72L1286.45 371.68C1286.45 371.68 1245.41 321.85 1215.11 295.754C1183.77 268.769 1129.09 237.165 1129.09 237.165C1129.09 237.165 1030.43 289.178 947.962 305.917C867.834 322.182 811.281 329.548 760 329.548C708.719 329.548 652.166 322.182 572.038 305.917C489.567 289.178 390.906 237.165 390.906 237.165C390.906 237.165 336.226 268.769 304.894 295.754C274.594 321.85 233.554 371.68 233.554 371.68L295.281 505H59L225.965 468.531L167.78 371.68C167.78 371.68 215.34 310.102 272.513 257.492C329.686 204.882 390.906 172 390.906 172C390.906 172 506.264 237.165 596.324 252.709C683.327 267.726 706.784 273.452 760 273.452C813.216 273.452 836.673 267.726 923.676 252.709C1013.74 237.165 1129.09 172 1129.09 172C1129.09 172 1190.31 204.882 1247.49 257.492C1304.66 310.102 1352.22 371.68 1352.22 371.68L1294.03 468.531L1461 505Z" fill="black"/>
<path d="M388.27 505L342.966 403.406C342.966 403.406 365.856 380.235 378.732 370.135C391.608 360.035 411.637 348.153 411.637 348.153C411.637 348.153 529.904 384.394 595.714 402.218C661.524 420.041 754.516 420.041 754.516 420.041H765.484C765.484 420.041 858.476 420.041 924.286 402.218C990.096 384.394 1108.36 348.153 1108.36 348.153C1108.36 348.153 1128.39 360.035 1141.27 370.135C1154.14 380.235 1177.03 403.406 1177.03 403.406L1131.73 505H1173.22L1219 403.406C1219 403.406 1196.11 373.7 1162.73 344.588C1129.35 315.476 1108.36 303 1108.36 303C1108.36 303 996.772 346.371 924.286 363.6C851.8 380.829 809.253 380.829 765.484 380.829H754.516C710.747 380.829 668.2 380.829 595.714 363.6C523.228 346.371 411.637 303 411.637 303C411.637 303 390.654 315.476 357.272 344.588C323.89 373.7 301 403.406 301 403.406L346.781 505H388.27Z" fill="black"/>
<path d="M248.159 929H59L232.859 958.556C232.859 958.556 284.321 1017.67 442.881 1146.32C601.44 1274.98 755.07 1346.77 755.07 1346.77C756.994 1347.26 760 1348 760 1348C760 1348 763.053 1347.49 764.93 1346.77C764.93 1346.77 918.56 1274.98 1077.12 1146.32C1235.68 1017.67 1287.14 958.556 1287.14 958.556L1461 929H1271.84C1271.84 929 1114.67 1076.61 997.839 1156.76C881.006 1236.9 765.916 1298.71 765.916 1298.71C763.608 1299.63 760 1301.06 760 1301.06C760 1301.06 756.392 1299.63 754.084 1298.71C754.084 1298.71 638.994 1236.9 522.161 1156.76C405.327 1076.61 248.159 929 248.159 929Z" fill="black"/>
<path d="M450.048 1045.53C608.774 1174.05 762.565 1245.77 762.565 1245.77C764.491 1246.26 767.5 1247 767.5 1247C767.5 1247 770.556 1246.49 772.435 1245.77C772.435 1245.77 926.226 1174.05 1084.95 1045.53C1144.95 996.948 1189.63 958.292 1222 929H1167.08C1116.72 972.128 1057.22 1020.61 1005.59 1055.95C888.633 1136.01 773.422 1197.76 773.422 1197.76C771.112 1198.68 767.5 1200.11 767.5 1200.11C767.5 1200.11 763.888 1198.68 761.578 1197.76C761.578 1197.76 646.367 1136.01 529.411 1055.95C477.78 1020.61 418.281 972.128 367.922 929H313C345.369 958.292 390.049 996.948 450.048 1045.53Z" fill="black"/>
<path d="M116.023 887H61.1953C59.9349 887 59.3047 886.212 59.3047 884.637L60.25 552.123C60.25 550.863 60.8802 550.232 62.1406 550.232H121.223C122.483 550.232 123.586 550.863 124.531 552.123L168.725 615.932L212.682 552.123C213.627 550.863 214.809 550.232 216.227 550.232H275.545C276.963 550.232 277.672 550.863 277.672 552.123L278.617 884.637C278.617 886.212 277.987 887 276.727 887H221.898C220.638 887 220.008 886.212 220.008 884.637L219.535 637.674L168.725 711.408L118.387 637.674L117.914 884.637C117.914 886.212 117.284 887 116.023 887ZM408.834 891.727C391.661 891.727 375.827 887.315 361.332 878.492C346.995 869.669 335.415 857.932 326.592 843.279C317.926 828.469 313.594 812.242 313.594 794.596L314.066 641.219C314.066 623.258 318.399 607.109 327.064 592.771C335.572 578.277 347.074 566.697 361.568 558.031C376.063 549.208 391.818 544.797 408.834 544.797C426.48 544.797 442.314 549.13 456.336 557.795C470.516 566.46 481.859 578.119 490.367 592.771C499.033 607.266 503.365 623.415 503.365 641.219L503.838 794.596C503.838 812.242 499.584 828.391 491.076 843.043C482.411 857.853 470.91 869.669 456.572 878.492C442.235 887.315 426.322 891.727 408.834 891.727ZM408.834 833.354C418.602 833.354 427.11 829.415 434.357 821.537C441.605 813.502 445.229 804.521 445.229 794.596L444.756 641.219C444.756 630.505 441.368 621.446 434.594 614.041C427.819 606.636 419.232 602.934 408.834 602.934C398.908 602.934 390.4 606.557 383.311 613.805C376.221 621.052 372.676 630.19 372.676 641.219V794.596C372.676 805.152 376.221 814.29 383.311 822.01C390.4 829.572 398.908 833.354 408.834 833.354ZM629.092 887H542.359C541.099 887 540.469 886.212 540.469 884.637L541.414 552.123C541.414 550.863 542.044 550.232 543.305 550.232H636.418C654.536 550.232 671.001 554.644 685.811 563.467C700.305 572.29 711.728 584.027 720.078 598.68C728.428 613.174 732.604 628.93 732.604 645.945C732.604 659.81 729.452 672.729 723.15 684.703C716.848 696.677 709.365 706.367 700.699 713.771C709.995 723.067 717.242 733.859 722.441 746.148C727.641 758.438 730.24 771.357 730.24 784.906C730.24 803.655 725.75 820.749 716.77 836.189C707.632 851.63 695.421 863.997 680.139 873.293C664.856 882.431 647.84 887 629.092 887ZM636.418 607.66H599.551V683.758H636.418C647.604 683.758 656.663 679.819 663.596 671.941C670.528 663.906 673.994 655.241 673.994 645.945C673.994 635.704 670.292 626.803 662.887 619.24C655.482 611.52 646.659 607.66 636.418 607.66ZM629.092 742.367H599.551L599.078 827.918H629.092C640.751 827.918 650.755 823.664 659.105 815.156C667.456 806.648 671.631 796.565 671.631 784.906C671.631 773.247 667.456 763.243 659.105 754.893C650.755 746.542 640.751 742.367 629.092 742.367Z" fill="black"/>
<path d="M796 510.952C804.148 510.952 812.217 512.557 819.745 515.675C827.273 518.793 834.113 523.364 839.875 529.125C842.355 531.606 844.615 534.286 846.633 537.136L832.016 549.255C830.416 546.828 828.57 544.562 826.504 542.496C822.498 538.49 817.742 535.313 812.509 533.145C807.275 530.977 801.665 529.861 796 529.861C790.335 529.861 784.725 530.977 779.491 533.145C774.257 535.313 769.502 538.49 765.496 542.496C763.43 544.562 761.584 546.828 759.984 549.255L745.367 537.136C747.385 534.286 749.645 531.606 752.125 529.125C757.887 523.364 764.727 518.793 772.255 515.675C779.783 512.557 787.852 510.952 796 510.952Z" fill="#0044FF"/>
<path d="M796 470C809.526 470 822.92 472.664 835.416 477.84C847.913 483.017 859.268 490.604 868.832 500.168C872.213 503.549 875.346 507.153 878.213 510.952L868.455 519.043L858.696 527.134C856.349 523.926 853.754 520.895 850.929 518.071C843.716 510.857 835.152 505.135 825.728 501.231C816.303 497.327 806.201 495.318 796 495.318C785.799 495.318 775.697 497.327 766.272 501.231C756.848 505.135 748.284 510.857 741.07 518.071C738.246 520.895 735.651 523.926 733.304 527.134L713.787 510.952C716.654 507.153 719.787 503.549 723.168 500.168C732.732 490.604 744.087 483.017 756.584 477.84C769.08 472.664 782.474 470 796 470Z" fill="#0044FF"/>
<circle cx="795.5" cy="574" r="29.5" fill="#0044FF"/>
<rect x="766" y="619.5" width="59" height="267" rx="2" fill="black"/>
<path d="M946.705 891.727C929.532 891.727 913.698 887.315 899.203 878.492C884.866 869.669 873.365 857.932 864.699 843.279C856.191 828.469 851.938 812.242 851.938 794.596V772.381C851.938 770.648 852.725 769.781 854.301 769.781H908.656C909.917 769.781 910.547 770.648 910.547 772.381V794.596C910.547 805.152 914.092 814.29 921.182 822.01C928.271 829.572 936.779 833.354 946.705 833.354C956.788 833.354 965.375 829.493 972.465 821.773C979.555 813.896 983.1 804.837 983.1 794.596C983.1 782.779 975.38 772.46 959.939 763.637C957.419 762.061 954.11 760.171 950.014 757.965C946.075 755.602 941.348 752.923 935.834 749.93C930.32 746.936 924.963 744.021 919.764 741.186C914.564 738.192 909.523 735.356 904.639 732.678C886.993 722.279 873.837 709.281 865.172 693.684C856.664 677.928 852.41 660.283 852.41 640.746C852.41 622.785 856.822 606.557 865.645 592.062C874.467 577.725 885.969 566.382 900.148 558.031C914.486 549.523 930.005 545.27 946.705 545.27C963.878 545.27 979.633 549.523 993.971 558.031C1008.31 566.697 1019.73 578.198 1028.24 592.535C1036.9 606.872 1041.24 622.943 1041.24 640.746V680.449C1041.24 681.71 1040.61 682.34 1039.35 682.34H984.99C983.73 682.34 983.1 681.71 983.1 680.449L982.627 640.746C982.627 629.402 979.082 620.186 971.992 613.096C964.902 606.006 956.473 602.461 946.705 602.461C936.779 602.461 928.271 606.242 921.182 613.805C914.092 621.367 910.547 630.348 910.547 640.746C910.547 651.302 912.753 660.125 917.164 667.215C921.733 674.305 930.005 681.079 941.979 687.539C943.239 688.169 946.154 689.745 950.723 692.266C955.292 694.786 960.333 697.622 965.848 700.773C971.52 703.767 976.64 706.524 981.209 709.045C985.778 711.408 988.535 712.826 989.48 713.299C1005.55 722.279 1018.23 733.308 1027.53 746.385C1036.98 759.462 1041.71 775.532 1041.71 794.596C1041.71 813.029 1037.46 829.572 1028.95 844.225C1020.28 858.877 1008.78 870.457 994.443 878.965C980.106 887.473 964.193 891.727 946.705 891.727ZM1233.61 887H1077.16C1075.9 887 1075.27 886.212 1075.27 884.637L1075.74 552.123C1075.74 550.863 1076.37 550.232 1077.63 550.232H1233.13C1234.4 550.232 1235.03 551.02 1235.03 552.596V606.715C1235.03 607.975 1234.4 608.605 1233.13 608.605H1133.88V684.23H1233.13C1234.4 684.23 1235.03 684.861 1235.03 686.121L1235.5 740.949C1235.5 742.21 1234.87 742.84 1233.61 742.84H1133.88V827.445H1233.61C1234.87 827.445 1235.5 828.233 1235.5 829.809V885.109C1235.5 886.37 1234.87 887 1233.61 887ZM1367.61 891.727C1350.12 891.727 1334.13 887.315 1319.63 878.492C1305.29 869.669 1293.87 857.853 1285.36 843.043C1277.01 828.076 1272.84 811.454 1272.84 793.178L1273.31 642.164C1273.31 624.203 1277.41 607.975 1285.6 593.48C1293.79 578.828 1305.06 567.09 1319.39 558.268C1333.89 549.287 1349.96 544.797 1367.61 544.797C1385.57 544.797 1401.56 549.13 1415.58 557.795C1429.76 566.46 1441.02 578.198 1449.38 593.008C1457.88 607.66 1462.14 624.046 1462.14 642.164V664.379C1462.14 665.639 1461.51 666.27 1460.25 666.27H1405.89C1404.63 666.27 1404 665.639 1404 664.379V642.164C1404 631.451 1400.53 622.234 1393.6 614.514C1386.67 606.794 1378 602.934 1367.61 602.934C1356.1 602.934 1347.28 606.872 1341.14 614.75C1334.99 622.628 1331.92 631.766 1331.92 642.164V793.178C1331.92 804.994 1335.39 814.684 1342.32 822.246C1349.25 829.651 1357.68 833.354 1367.61 833.354C1378 833.354 1386.67 829.257 1393.6 821.064C1400.53 812.714 1404 803.419 1404 793.178V770.727C1404 769.466 1404.63 768.836 1405.89 768.836H1460.72C1461.98 768.836 1462.61 769.466 1462.61 770.727V793.178C1462.61 811.296 1458.36 827.839 1449.85 842.807C1441.18 857.617 1429.76 869.512 1415.58 878.492C1401.4 887.315 1385.41 891.727 1367.61 891.727Z" fill="black"/>
</svg>
